# xmcd
#
# Track frame offsets:
#	150
#	11592
#	20455
#	33100
#	42452
#	54040
#	64465
#	73630
#	82982
#	92565
#	101775
#	112437
#	122410
#	131717
#	143267
#	155522
#	163902
#	174800
#	183637
#	194425
#	206710
#
# Disc length: 2884 seconds
#
# Revision: 0
# Processed by: cddbd v1.4PL0 Copyright (c) Steve Scherf et al.
# Submitted via: audiograbber 1.80
#
DISCID=220b4215
DTITLE=Long John Hunter - Ooh Wee Pretty Baby
DYEAR=1900
DGENRE=
TTITLE0=El Paso Rock
TTITLE1=Ride With Me Baby
TTITLE2=Border Town Blues
TTITLE3=Flippin' Fingers
TTITLE4=Midnight Stroll
TTITLE5=Hey Mrs. Jones
TTITLE6=Shuffle Out
TTITLE7=School Girl
TTITLE8=So Long
TTITLE9=The Scratch 
TTITLE10=Betty Lou
TTITLE11=Strange Feeling
TTITLE12=Grandma
TTITLE13=I Wanna Love You
TTITLE14=Old Red
TTITLE15=Stop What You're Doin'
TTITLE16=Ole Rattler
TTITLE17=Slash
TTITLE18=Come On
TTITLE19=I Don't Care
TTITLE20=Betty Lou
EXTD=
EXTT0=
EXTT1=
EXTT2=
EXTT3=
EXTT4=
EXTT5=
EXTT6=
EXTT7=
EXTT8=
EXTT9=
EXTT10=
EXTT11=
EXTT12=
EXTT13=
EXTT14=
EXTT15=
EXTT16=
EXTT17=
EXTT18=
EXTT19=
EXTT20=
PLAYORDER=
